<?xml version="1.0" standalone="no"?>
<!DOCTYPE svg PUBLIC "-//W3C//DTD SVG 20010904//EN"
 "http://www.w3.org/TR/2001/REC-SVG-20010904/DTD/svg10.dtd">
<svg version="1.0" xmlns="http://www.w3.org/2000/svg"
 width="412.000000pt" height="412.000000pt" viewBox="0 0 412.000000 412.000000"
 preserveAspectRatio="xMidYMid meet">
<metadata>
Created by potrace 1.14, written by Peter Selinger 2001-2017
</metadata>
<g transform="translate(0.000000,412.000000) scale(0.100000,-0.100000)"
fill="#000000" stroke="none">
<path d="M2146 4086 c-49 -18 -94 -60 -117 -111 -20 -44 -25 -128 -9 -170 9
-25 6 -31 -32 -66 -24 -21 -46 -38 -50 -39 -4 0 -30 20 -58 45 -48 43 -124 75
-176 75 -15 0 -29 11 -41 30 -13 23 -24 30 -42 28 -19 -2 -30 -16 -51 -65 -14
-34 -29 -65 -32 -68 -4 -4 -26 5 -50 18 -63 37 -122 43 -191 19 l-58 -19 -80
104 c-64 83 -85 104 -102 101 -17 -2 -23 -11 -25 -38 -2 -31 38 -290 54 -348
6 -22 5 -22 -35 -16 -25 4 -53 2 -71 -6 -27 -11 -33 -10 -53 7 -65 60 -154 57
-211 -6 -13 -15 -26 -19 -40 -15 -61 20 -90 5 -157 -79 -41 -51 -51 -99 -27
-136 9 -15 6 -24 -15 -52 -78 -103 -88 -224 -23 -278 14 -12 12 -15 -16 -30
-37 -18 -68 -71 -68 -117 0 -17 9 -66 20 -109 11 -43 20 -80 20 -82 0 -1 -26
-3 -59 -3 -110 0 -146 -63 -95 -167 17 -36 23 -58 16 -61 -6 -2 -29 -17 -52
-33 -128 -93 -96 -220 60 -244 57 -8 171 15 237 48 48 25 49 25 73 7 l25 -18
-22 -40 c-13 -21 -25 -65 -29 -97 -6 -48 -14 -65 -47 -104 -55 -63 -97 -131
-97 -156 0 -26 26 -39 109 -56 71 -14 238 -7 289 11 18 7 35 10 38 7 3 -3 -17
-36 -44 -74 -63 -86 -217 -323 -225 -345 -9 -26 14 -37 135 -63 201 -43 332
-56 616 -62 l272 -6 9 -36 c6 -20 42 -176 80 -347 l71 -312 -25 -203 c-14
-112 -23 -209 -21 -216 4 -9 29 -13 85 -13 94 0 95 1 105 105 10 101 18 147
25 140 3 -3 8 -59 11 -123 l5 -117 105 0 105 0 5 220 c3 121 8 209 12 195 4
-14 16 -108 28 -210 11 -102 23 -191 25 -198 6 -17 154 -17 160 1 3 6 -6 105
-18 219 l-24 207 62 288 c35 158 68 313 74 344 l12 56 282 6 c209 4 316 11
412 25 185 29 323 62 330 80 3 8 -7 35 -21 61 -34 58 -221 340 -243 365 -15
18 -15 19 24 13 195 -32 317 -29 429 9 39 14 46 20 46 43 0 32 -56 120 -116
181 -24 25 -44 50 -44 55 0 6 17 21 37 35 73 50 143 121 143 146 0 30 -20 38
-128 55 l-81 12 5 46 c9 68 38 91 116 91 76 0 122 22 156 73 23 35 27 51 27
118 0 65 3 81 21 101 12 13 27 33 33 45 16 31 14 119 -3 152 -21 39 -82 91
-117 98 -33 6 -44 17 -52 54 -19 76 -132 133 -216 108 -38 -11 -111 -75 -111
-98 0 -5 -22 -11 -50 -13 -59 -6 -109 -41 -134 -92 -19 -40 -24 -42 -50 -23
-17 12 -15 16 23 61 23 26 41 51 41 56 0 24 -15 40 -36 40 -13 0 -24 3 -24 6
0 3 18 26 39 52 50 60 109 162 117 201 6 27 3 32 -22 41 -15 6 -63 14 -107 17
-65 5 -78 9 -74 22 41 144 91 335 106 403 15 70 16 91 7 104 -8 10 -20 14 -32
10 -10 -3 -82 -94 -158 -201 -76 -107 -142 -195 -145 -195 -3 0 -19 20 -34 45
-34 53 -67 60 -93 19 l-17 -25 -13 37 c-7 20 -29 53 -49 74 l-36 36 17 39 c25
62 16 154 -22 207 -34 48 -88 83 -144 92 -43 7 -123 -14 -151 -40 -18 -16 -21
-16 -68 9 -61 34 -124 42 -175 23z m117 -60 c18 -7 49 -32 68 -54 l35 -41 18
27 c34 51 66 67 133 67 52 0 66 -4 88 -25 64 -60 73 -137 25 -213 -16 -26 -30
-50 -30 -52 0 -2 18 -14 40 -26 23 -13 50 -37 60 -55 25 -40 26 -104 2 -134
l-18 -22 -37 25 c-51 34 -100 41 -170 22 -69 -18 -91 -11 -48 16 108 66 59
242 -68 242 -73 0 -131 -56 -131 -128 0 -41 22 -89 47 -103 13 -8 10 -11 -18
-17 -18 -4 -44 -14 -56 -22 -35 -23 -75 -13 -98 25 -11 18 -35 54 -53 79 -31
42 -32 46 -17 63 9 10 31 24 48 31 18 7 33 13 34 14 1 0 -9 23 -22 50 -40 78
-31 149 27 202 45 42 89 51 141 29z m-1106 -268 l31 -44 -23 -38 -23 -38 -10
53 c-26 138 -26 138 25 67z m1979 -124 c-60 -205 -56 -198 -99 -205 -36 -6
-39 -4 -52 28 -14 34 -14 35 37 111 95 142 142 205 145 195 2 -5 -12 -63 -31
-129z m-1342 101 c74 -35 111 -133 82 -215 -9 -25 -18 -49 -19 -54 -1 -5 14
-13 33 -18 72 -19 122 -97 106 -163 -7 -29 -63 -95 -80 -95 -6 0 -17 -4 -24
-9 -11 -7 -9 -16 12 -48 36 -54 43 -101 21 -147 -32 -68 -111 -94 -188 -61
-46 19 -47 19 -47 -6 0 -58 -71 -129 -130 -129 -58 0 -130 65 -130 119 0 27
-6 26 -55 -4 -147 -91 -297 79 -195 221 18 25 31 46 29 47 -2 2 -21 10 -41 19
-108 50 -84 226 33 244 21 4 39 8 39 9 0 2 -9 22 -20 46 -24 55 -25 93 -1 145
26 57 72 87 141 92 70 5 110 -13 148 -68 32 -46 38 -48 46 -15 9 34 69 92 109
104 40 12 85 7 131 -14z m619 -12 c41 -38 3 -123 -55 -123 -66 0 -94 88 -41
130 30 23 65 21 96 -7z m492 -253 c16 -33 27 -61 24 -62 -2 -2 -22 -13 -44
-24 -28 -15 -48 -37 -67 -73 -27 -51 -27 -51 -33 -24 -5 23 -24 74 -52 141 -4
9 2 12 23 10 24 -3 29 2 42 37 9 22 21 56 29 75 l14 34 17 -27 c10 -14 31 -54
47 -87z m-2051 80 c42 -16 56 -59 63 -191 5 -98 3 -123 -8 -130 -23 -15 -27
-12 -75 61 -26 39 -48 70 -50 70 -12 0 -34 -14 -34 -23 0 -6 20 -43 45 -83 56
-90 53 -110 -14 -99 -83 13 -96 12 -96 -10 0 -15 11 -23 45 -33 25 -7 56 -16
70 -20 14 -4 26 -15 28 -24 4 -21 -70 -38 -193 -45 -78 -4 -94 -2 -122 16 -65
41 -56 109 27 218 128 167 217 269 250 285 41 21 33 20 64 8z m214 -56 c27
-19 28 -38 3 -73 -36 -51 -46 -151 -19 -197 3 -5 2 -20 -3 -33 l-10 -24 -28
27 c-27 26 -28 30 -34 159 -3 83 -1 137 5 145 14 17 59 15 86 -4z m-425 -7
c-30 -50 -99 -125 -107 -117 -10 10 7 40 55 95 30 34 69 50 52 22z m1693 -53
c19 -9 42 -29 51 -45 l17 -28 34 30 c67 59 126 61 187 8 58 -51 64 -113 21
-197 -9 -18 -12 -32 -7 -32 17 0 81 -61 98 -93 10 -21 14 -46 10 -81 -4 -42
-10 -55 -42 -84 -37 -34 -39 -34 -110 -30 l-73 5 -4 -49 c-12 -116 -126 -178
-220 -120 -35 22 -70 76 -82 126 -6 26 -9 27 -24 13 -26 -23 -79 -47 -102 -47
-36 0 -85 28 -103 60 -21 34 -11 96 21 140 19 25 19 26 1 49 -10 12 -21 38
-25 57 -5 29 -1 39 25 69 17 20 37 56 43 81 l12 44 53 0 c50 0 53 1 53 25 0
58 53 114 108 115 13 0 39 -7 58 -16z m940 -77 c17 -17 -88 -164 -156 -218
-27 -22 -63 -34 -158 -54 -67 -14 -129 -28 -136 -31 -21 -8 -28 39 -11 79 16
38 7 34 168 67 58 12 80 31 59 52 -9 9 -33 8 -93 -1 -44 -7 -83 -10 -86 -7 -9
8 29 77 49 87 41 22 156 38 255 36 56 -1 105 -6 109 -10z m-2289 -213 c33 -52
-25 -112 -82 -86 -46 21 -41 93 8 111 30 11 56 2 74 -25z m111 -43 c-13 -41
-28 -55 -28 -26 0 20 30 79 36 72 3 -2 -1 -23 -8 -46z m2565 -1 c30 -24 51
-81 43 -116 -6 -23 -4 -24 44 -24 58 0 94 -19 116 -61 31 -62 8 -131 -56 -164
l-28 -15 19 -37 c49 -96 -4 -193 -106 -193 -27 0 -45 9 -78 40 -39 35 -45 38
-59 24 -14 -14 -21 -12 -71 21 -30 20 -73 39 -95 42 l-39 5 2 63 c0 35 6 70
13 78 10 12 4 22 -33 59 -56 57 -61 100 -16 150 29 33 65 40 131 28 21 -4 25
0 33 32 19 79 119 116 180 68z m-519 -81 c-16 -17 -48 -42 -71 -56 -26 -15
-43 -32 -43 -43 0 -31 -41 -36 -63 -9 -10 13 -32 39 -49 57 -16 19 -28 35 -26
37 7 7 205 43 242 44 l40 1 -30 -31z m-2235 -28 c35 -22 -138 -131 -209 -131
-34 0 -48 6 -76 34 -50 50 -46 66 19 67 28 0 88 9 132 18 96 22 116 23 134 12z
m202 -134 c71 -127 73 -162 5 -95 -68 68 -144 84 -226 47 -78 -35 -122 -93
-136 -178 -4 -25 -12 -41 -21 -41 -15 0 -14 -3 -37 95 -8 39 -18 79 -22 91 -5
19 -1 22 50 27 74 7 145 47 231 129 82 78 67 85 156 -75z m-602 47 c34 -24 99
-130 117 -191 l16 -53 -49 -44 c-26 -24 -51 -42 -56 -39 -17 11 -78 148 -93
209 -14 64 -12 96 8 122 14 16 29 15 57 -4z m2669 -85 c81 -40 121 -144 89
-236 l-14 -42 67 6 c52 4 75 2 104 -12 41 -20 81 -72 91 -122 15 -76 -39 -162
-118 -185 -55 -15 -54 -14 -24 -38 33 -26 67 -97 67 -141 0 -46 -29 -99 -70
-126 -44 -30 -103 -30 -163 1 l-47 23 0 -26 c0 -37 -40 -111 -72 -134 -41 -31
-115 -33 -162 -5 -50 29 -86 95 -86 156 0 41 -1 44 -22 37 -65 -20 -65 -20
-82 33 -24 71 -69 137 -115 168 -23 15 -41 33 -41 40 0 21 59 83 98 103 l36
18 -31 16 c-163 85 -141 334 34 371 44 10 107 -9 147 -44 18 -17 36 -30 39
-30 3 0 9 15 12 33 28 128 148 191 263 136z m-1905 -4 c19 -4 52 -2 73 4 33 9
41 8 51 -5 10 -14 8 -20 -9 -34 -26 -21 -18 -55 11 -47 22 5 63 -36 68 -67 2
-13 -11 -5 -47 27 -46 42 -106 67 -158 67 -16 0 -28 15 -51 64 -2 5 3 6 12 3
9 -3 31 -9 50 -12z m688 -11 c7 -8 25 -22 40 -29 l27 -15 -16 -50 c-15 -48
-15 -55 1 -99 29 -83 19 -116 -43 -139 -19 -7 -33 -4 -62 16 -42 27 -81 25
-97 -7 -10 -18 -12 -18 -73 -1 -35 10 -81 22 -103 26 -47 11 -56 33 -30 81 17
31 17 34 2 51 -27 30 -22 52 13 52 39 0 80 21 132 68 32 29 54 40 102 48 86
16 92 16 107 -2z m-905 -69 c16 -13 39 -43 49 -67 10 -23 20 -45 22 -47 2 -3
13 5 26 16 58 54 139 68 191 34 38 -25 66 -70 66 -106 0 -28 -6 -33 -75 -64
-98 -44 -108 -61 -58 -98 21 -15 39 -28 41 -29 2 -1 -12 -25 -30 -53 -28 -44
-38 -51 -65 -51 -26 0 -33 -4 -33 -20 0 -10 8 -24 19 -29 17 -10 17 -14 5 -63
-8 -29 -14 -86 -14 -126 l0 -74 -35 6 c-34 7 -35 6 -35 -25 0 -68 -53 -132
-120 -145 -71 -15 -150 54 -150 130 0 36 0 36 -24 21 -84 -56 -180 -25 -206
65 -15 52 5 108 55 156 l43 42 -38 17 c-64 29 -102 76 -108 133 -11 118 97
202 209 163 18 -6 34 -10 35 -8 2 2 -1 20 -7 41 -22 81 27 176 106 204 40 15
93 5 131 -23z m1148 -16 c34 -48 111 -89 169 -89 21 0 61 10 88 21 27 12 52
19 56 16 3 -4 -4 -29 -16 -56 -17 -40 -21 -70 -21 -150 0 -97 1 -101 30 -135
17 -19 27 -37 22 -40 -5 -3 -34 2 -63 10 -78 23 -159 14 -205 -23 -58 -45 -98
-73 -106 -73 -4 0 -30 46 -57 103 l-50 102 25 44 c28 51 32 116 8 150 -34 48
-12 132 39 149 48 15 50 15 81 -29z m-1785 -132 c40 -14 92 -74 70 -81 -8 -2
-42 -10 -77 -18 l-63 -15 -24 29 c-31 37 -40 66 -25 83 15 18 72 19 119 2z
m58 -216 c1 -32 6 -68 12 -80 11 -20 8 -23 -44 -47 -99 -45 -231 -30 -243 28
-8 39 90 111 193 144 77 24 82 22 82 -45z m1318 -25 c123 -56 205 -181 205
-313 l0 -43 -37 0 c-21 0 -55 -3 -75 -6 l-38 -7 0 49 c-1 97 -57 170 -150 195
-183 48 -312 -201 -171 -328 73 -66 177 -69 251 -6 27 22 42 26 116 30 54 2
84 0 84 -7 0 -27 -49 -109 -87 -148 -81 -80 -204 -111 -317 -78 -106 31 -176
92 -225 196 -22 47 -26 68 -26 150 0 76 5 104 22 142 43 93 139 172 240 198
55 13 150 2 208 -24z m1878 -135 c15 -6 8 -15 -39 -49 -65 -48 -84 -52 -84
-18 0 14 -4 36 -9 49 -6 14 -7 28 -4 31 7 7 108 -3 136 -13z m-1203 -51 c47
-24 102 -85 137 -152 26 -48 28 -62 28 -159 0 -101 -1 -108 -38 -181 -46 -95
-130 -177 -212 -207 -105 -39 -184 -23 -262 55 -79 79 -108 191 -83 325 6 29
14 57 19 62 5 5 30 -3 60 -19 44 -25 53 -27 61 -14 17 26 6 44 -47 75 -29 17
-52 33 -53 37 0 4 21 35 48 70 48 64 128 122 181 131 44 8 122 -3 161 -23z
m-777 -52 c71 -37 59 -128 -20 -152 -26 -8 -78 16 -87 39 -30 78 38 150 107
113z m1918 -170 c11 -13 33 -42 49 -65 28 -39 29 -43 13 -51 -50 -27 -283 -37
-283 -12 0 3 18 16 40 29 22 12 66 44 97 71 32 28 60 50 61 50 2 0 12 -10 23
-22z m-3012 -78 c12 -27 29 -50 37 -50 9 0 12 -5 8 -11 -9 -15 -144 4 -144 21
0 9 63 89 71 89 3 1 16 -21 28 -49z m591 -156 c46 -12 88 -15 142 -11 92 6
100 0 142 -113 51 -137 54 -145 66 -142 6 1 9 -2 5 -8 -3 -5 -10 -10 -15 -10
-12 0 -454 309 -458 320 -2 5 9 3 25 -5 16 -8 58 -22 93 -31z m-35 36 c13 -6
15 -9 5 -9 -8 0 -22 4 -30 9 -18 12 -2 12 25 0z m1644 -60 c12 -22 26 -40 32
-40 5 0 9 -9 9 -19 0 -12 -26 -38 -70 -71 -39 -29 -72 -51 -74 -49 -2 2 9 42
24 89 16 47 29 95 29 108 1 34 25 26 50 -18z m527 -151 c57 -86 104 -161 104
-166 0 -13 -167 -48 -315 -68 -116 -15 -440 -21 -449 -7 -2 4 16 21 42 37 26
16 80 53 120 82 80 59 86 60 155 16 44 -28 72 -27 72 2 0 14 -15 28 -47 45
-53 28 -60 45 -24 61 19 9 36 7 75 -6 54 -18 71 -14 71 14 0 12 -15 24 -42 35
-40 15 -41 18 -23 28 44 25 124 101 118 112 -3 6 4 2 17 -9 12 -11 69 -90 126
-176z m-2334 119 c43 -29 75 -55 72 -58 -3 -3 -20 -10 -37 -16 -18 -6 -34 -19
-35 -28 -7 -33 13 -38 73 -20 56 16 59 16 72 -2 11 -15 15 -16 22 -5 5 7 11 9
14 4 5 -8 -13 -22 -85 -67 -31 -18 -37 -43 -13 -52 8 -4 44 9 79 27 l64 33 38
-27 c22 -16 66 -48 99 -72 59 -43 82 -55 70 -35 -3 6 -1 10 5 10 7 0 10 -7 6
-15 -3 -8 2 -19 12 -24 16 -9 16 -10 -1 -17 -31 -12 -415 4 -517 21 -144 24
-250 48 -250 56 0 14 220 338 230 339 3 0 40 -23 82 -52z m1298 -454 c0 -8 -5
-46 -11 -85 l-12 -69 -275 2 -275 3 -14 60 c-7 33 -15 70 -18 83 l-5 22 305 0
c269 0 305 -2 305 -16z m-44 -238 c3 -8 2 -34 -3 -58 l-9 -43 -236 -3 -236 -2
-11 44 c-20 82 -41 76 239 76 207 0 252 -2 256 -14z m-26 -188 c0 -7 -5 -47
-11 -89 l-12 -76 -105 -7 c-58 -3 -142 -6 -188 -6 -70 0 -83 3 -88 18 -9 29
-36 153 -36 163 0 5 90 9 220 9 169 0 220 -3 220 -12z m-330 -246 c0 -5 -11
-89 -25 -188 -14 -98 -25 -180 -25 -181 0 -5 -37 -3 -41 2 -4 3 33 334 40 373
2 7 51 1 51 -6z m388 -27 c-3 -3 -9 2 -12 12 -6 14 -5 15 5 6 7 -7 10 -15 7
-18z m-178 -155 l0 -150 -25 0 -25 0 0 150 0 150 25 0 25 0 0 -150z"/>
<path d="M1460 3418 c-57 -39 -75 -72 -75 -138 0 -44 5 -66 21 -87 74 -100
211 -98 271 4 47 81 19 189 -61 227 -50 23 -116 21 -156 -6z m153 -66 c62 -65
17 -172 -73 -172 -33 0 -48 6 -71 29 -65 66 -20 171 73 171 35 0 50 -6 71 -28z"/>
<path d="M2326 3194 c-9 -8 -16 -23 -16 -32 0 -10 -9 -23 -20 -30 -39 -24 -18
-72 31 -72 15 0 31 -4 34 -10 24 -38 108 31 103 84 -2 24 -8 32 -26 34 -13 2
-32 12 -43 23 -23 23 -42 24 -63 3z"/>
<path d="M3550 2943 c-111 -41 -50 -219 73 -215 97 3 115 169 23 207 -36 15
-69 18 -96 8z"/>
<path d="M2943 2496 c-71 -34 -106 -87 -111 -172 -6 -84 25 -140 101 -185 46
-27 59 -30 110 -25 73 5 126 39 163 101 23 40 26 54 22 109 -5 84 -37 134
-109 170 -66 32 -109 33 -176 2z m121 -100 c70 -29 73 -125 4 -159 -33 -16
-40 -17 -71 -3 -76 31 -78 129 -4 161 40 18 32 17 71 1z"/>
<path d="M1754 2704 c-41 -43 -45 -80 -10 -94 13 -5 29 -17 34 -26 12 -22 50
-13 92 22 34 29 37 60 6 78 -10 6 -29 21 -42 34 -31 30 -41 28 -80 -14z"/>
<path d="M886 2390 c-77 -68 -69 -178 17 -230 90 -55 207 11 207 118 0 86 -56
142 -142 142 -38 0 -54 -6 -82 -30z m124 -35 c75 -39 44 -155 -41 -155 -75 0
-105 86 -50 141 33 33 50 35 91 14z"/>
<path d="M2239 2597 c-39 -26 -79 -90 -79 -127 0 -69 70 -117 157 -107 54 6
91 31 117 79 28 51 11 107 -46 148 -51 37 -101 39 -149 7z"/>
<path d="M2283 1925 c-42 -18 -73 -69 -73 -120 0 -52 17 -84 59 -112 86 -58
191 7 191 118 0 52 -23 90 -70 114 -36 18 -65 18 -107 0z m82 -51 c8 -4 22
-19 31 -35 13 -25 13 -33 0 -64 -36 -84 -158 -34 -125 52 17 44 53 62 94 47z"/>
</g>
</svg>
